<svg xmlns="http://www.w3.org/2000/svg" viewBox="0 0 64 64">
  <!-- Controller body -->
  <path d="M8 24c0-6 5-12 14-12h20c9 0 14 6 14 12v4c0 8-3 16-10 20-3 1.5-5-1-5-4v-6c0-2-1-3-3-3H26c-2 0-3 1-3 3v6c0 3-2 5.5-5 4C11 44 8 36 8 28z" fill="#3d3532"/>
  <!-- D-pad -->
  <rect x="15" y="25" width="5" height="14" rx="1.2" fill="#555"/>
  <rect x="12" y="28" width="11" height="5" rx="1.2" fill="#555"/>
  <rect x="16" y="26" width="3" height="12" rx="0.8" fill="#c47a4a"/>
  <rect x="13" y="29" width="9" height="3" rx="0.8" fill="#c47a4a"/>
  <!-- Buttons -->
  <circle cx="42" cy="28" r="3.5" fill="#888"/>
  <circle cx="48" cy="33" r="3.5" fill="#888"/>
  <!-- Sticks -->
  <circle cx="25" cy="38" r="4" fill="#888"/>
  <circle cx="25" cy="38" r="2.5" fill="#aaa"/>
  <circle cx="40" cy="38" r="4" fill="#888"/>
  <circle cx="40" cy="38" r="2.5" fill="#aaa"/>
</svg>
