<svg xmlns="http://www.w3.org/2000/svg" viewBox="0 0 32 32">
  <path d="M6 16c0-5.5 4.5-10 10-10s10 4.5 10 10v3c0 1.1-.9 2-2 2h-1c-1.1 0-2-.9-2-2v-2c0-1.1.9-2 2-2h1c.2 0 .3 0 .5.1C24 11 20.4 8 16 8s-8 3-8.5 6.9c.2-.1.3-.1.5-.1h1c1.1 0 2 .9 2 2v2c0 1.1-.9 2-2 2H8c-1.1 0-2-.9-2-2v-2.8z" fill="#c47a4a"/>
  <rect x="7" y="14" width="4" height="7" rx="1.5" fill="#c47a4a"/>
  <rect x="21" y="14" width="4" height="7" rx="1.5" fill="#c47a4a"/>
  <path d="M7 21c0 3 4 5 9 5s9-2 9-5" fill="none" stroke="#c47a4a" stroke-width="1.5" stroke-linecap="round"/>
</svg>
